REM DIRINDEX 1\2\6,1\2\7,1\2\8,1\2\9,1\3\10,1\3\11,1\4\12,1\4\13,1\4\14,1\5\15,1\5\16,1\5\17
REM DIRNAME folder01,folder02,folder03,folder04,folder05,folder06,folder07,folder08,folder09,folder10,folder11,folder12,folder13,folder14,folder15,folder16,folder17
TITLE ""
FILE "1400_3_sec11_1066_1083.mp3" MP3
  TRACK 01 AUDIO
    TITLE "0:"
    INDEX 01 00:00:00
  TRACK 02 AUDIO
    TITLE "17:cjc029_6569"
    INDEX 01 00:00:17
  TRACK 03 AUDIO
    TITLE "0:"
    INDEX 01 00:01:64
  TRACK 04 AUDIO
    TITLE "16:cjc029_6570"
    INDEX 01 00:01:73
  TRACK 05 AUDIO
    TITLE "0:"
    INDEX 01 00:03:31
  TRACK 06 AUDIO
    TITLE "17:cjc029_6571"
    INDEX 01 00:04:17
  TRACK 07 AUDIO
    TITLE "0:"
    INDEX 01 00:06:71
  TRACK 08 AUDIO
    TITLE "16:cjc029_6572"
    INDEX 01 00:07:00
  TRACK 09 AUDIO
    TITLE "0:"
    INDEX 01 00:08:01
  TRACK 10 AUDIO
    TITLE "17:cjc029_6573"
    INDEX 01 00:08:58
  TRACK 11 AUDIO
    TITLE "0:"
    INDEX 01 00:11:29
  TRACK 12 AUDIO
    TITLE "16:cjc029_6574"
    INDEX 01 00:11:35
  TRACK 13 AUDIO
    TITLE "0:"
    INDEX 01 00:12:69
  TRACK 14 AUDIO
    TITLE "17:cjc029_6575"
    INDEX 01 00:13:53
  TRACK 15 AUDIO
    TITLE "0:"
    INDEX 01 00:15:44
  TRACK 16 AUDIO
    TITLE "16:cjc029_6576"
    INDEX 01 00:15:50
  TRACK 17 AUDIO
    TITLE "0:"
    INDEX 01 00:16:67
  TRACK 18 AUDIO
    TITLE "17:cjc029_6577"
    INDEX 01 00:17:49
  TRACK 19 AUDIO
    TITLE "0:"
    INDEX 01 00:18:62
  TRACK 20 AUDIO
    TITLE "16:cjc029_6578"
    INDEX 01 00:18:72
  TRACK 21 AUDIO
    TITLE "0:"
    INDEX 01 00:20:04
  TRACK 22 AUDIO
    TITLE "17:cjc029_6579"
    INDEX 01 00:20:61
  TRACK 23 AUDIO
    TITLE "0:"
    INDEX 01 00:21:72
  TRACK 24 AUDIO
    TITLE "16:cjc029_6580"
    INDEX 01 00:22:01
  TRACK 25 AUDIO
    TITLE "0:"
    INDEX 01 00:23:18
  TRACK 26 AUDIO
    TITLE "17:cjc029_6581"
    INDEX 01 00:24:02
  TRACK 27 AUDIO
    TITLE "0:"
    INDEX 01 00:25:46
  TRACK 28 AUDIO
    TITLE "16:cjc029_6582"
    INDEX 01 00:25:52
  TRACK 29 AUDIO
    TITLE "0:"
    INDEX 01 00:26:71
  TRACK 30 AUDIO
    TITLE "17:cjc029_6583"
    INDEX 01 00:27:55
  TRACK 31 AUDIO
    TITLE "0:"
    INDEX 01 00:29:01
  TRACK 32 AUDIO
    TITLE "16:cjc029_6584"
    INDEX 01 00:29:07
  TRACK 33 AUDIO
    TITLE "0:"
    INDEX 01 00:30:46
  TRACK 34 AUDIO
    TITLE "17:cjc029_6585"
    INDEX 01 00:31:29
  TRACK 35 AUDIO
    TITLE "0:"
    INDEX 01 00:33:62
  TRACK 36 AUDIO
    TITLE "16:cjc029_6586"
    INDEX 01 00:33:64
  TRACK 37 AUDIO
    TITLE "0:"
    INDEX 01 00:34:71
  TRACK 38 AUDIO
    TITLE "17:cjc029_6587"
    INDEX 01 00:35:55
  TRACK 39 AUDIO
    TITLE "0:"
    INDEX 01 00:38:12
  TRACK 40 AUDIO
    TITLE "16:cjc029_6588"
    INDEX 01 00:38:18
  TRACK 41 AUDIO
    TITLE "0:"
    INDEX 01 00:39:64
  TRACK 42 AUDIO
    TITLE "17:cjc029_6589"
    INDEX 01 00:40:48
  TRACK 43 AUDIO
    TITLE "0:"
    INDEX 01 00:41:55
  TRACK 44 AUDIO
    TITLE "16:cjc029_6590"
    INDEX 01 00:41:57
  TRACK 45 AUDIO
    TITLE "0:"
    INDEX 01 00:43:05
  TRACK 46 AUDIO
    TITLE "17:cjc029_6591"
    INDEX 01 00:43:64
  TRACK 47 AUDIO
    TITLE "0:"
    INDEX 01 00:45:10
  TRACK 48 AUDIO
    TITLE "16:cjc029_6592"
    INDEX 01 00:45:14
  TRACK 49 AUDIO
    TITLE "0:"
    INDEX 01 00:46:15
  TRACK 50 AUDIO
    TITLE "17:cjc029_6593"
    INDEX 01 00:46:72
  TRACK 51 AUDIO
    TITLE "0:"
    INDEX 01 00:48:30
  TRACK 52 AUDIO
    TITLE "16:cjc029_6594"
    INDEX 01 00:48:36
  TRACK 53 AUDIO
    TITLE "0:"
    INDEX 01 00:49:39
  TRACK 54 AUDIO
    TITLE "17:cjc029_6595"
    INDEX 01 00:50:23
  TRACK 55 AUDIO
    TITLE "0:"
    INDEX 01 00:51:63
  TRACK 56 AUDIO
    TITLE "16:cjc029_6596"
    INDEX 01 00:51:71
  TRACK 57 AUDIO
    TITLE "0:"
    INDEX 01 00:53:04
  TRACK 58 AUDIO
    TITLE "17:cjc029_6597"
    INDEX 01 00:53:62
  TRACK 59 AUDIO
    TITLE "0:"
    INDEX 01 00:55:32
  TRACK 60 AUDIO
    TITLE "16:cjc029_6598"
    INDEX 01 00:55:38
  TRACK 61 AUDIO
    TITLE "0:"
    INDEX 01 00:56:45
  TRACK 62 AUDIO
    TITLE "17:cjc029_6599"
    INDEX 01 00:57:27
  TRACK 63 AUDIO
    TITLE "0:"
    INDEX 01 00:58:50
  TRACK 64 AUDIO
    TITLE "16:cjc029_6600"
    INDEX 01 00:58:54
  TRACK 65 AUDIO
    TITLE "0:"
    INDEX 01 00:59:67
  TRACK 66 AUDIO
    TITLE "17:cjc029_6601"
    INDEX 01 01:00:51
  TRACK 67 AUDIO
    TITLE "0:"
    INDEX 01 01:02:08
  TRACK 68 AUDIO
    TITLE "16:cjc029_6602"
    INDEX 01 01:02:12
  TRACK 69 AUDIO
    TITLE "0:"
    INDEX 01 01:03:22
  TRACK 70 AUDIO
    TITLE "17:cjc029_6603"
    INDEX 01 01:04:03
  TRACK 71 AUDIO
    TITLE "0:"
    INDEX 01 01:05:26
  TRACK 72 AUDIO
    TITLE "16:cjc029_6604"
    INDEX 01 01:05:30
  TRACK 73 AUDIO
    TITLE "0:"
    INDEX 01 01:06:34
